<svg xmlns="http://www.w3.org/2000/svg" viewBox="0 0 64 64" width="64" height="64">
  <defs><linearGradient id="fw-g" x1="0%" y1="0%" x2="100%" y2="100%"><stop offset="0%" stop-color="#F97316"/><stop offset="50%" stop-color="#EF4444"/><stop offset="100%" stop-color="#F59E0B"/></linearGradient></defs>
  <circle cx="32" cy="26" r="5" fill="url(#fw-g)" opacity="0.95"/>
  <line x1="32" y1="21" x2="32" y2="8" stroke="#F97316" stroke-width="2.5" stroke-linecap="round"/>
  <line x1="37" y1="22" x2="46" y2="12" stroke="#EF4444" stroke-width="2" stroke-linecap="round"/>
  <line x1="37" y1="26" x2="50" y2="26" stroke="#F59E0B" stroke-width="2" stroke-linecap="round"/>
  <line x1="37" y1="30" x2="46" y2="40" stroke="#F97316" stroke-width="2" stroke-linecap="round"/>
  <line x1="32" y1="31" x2="32" y2="44" stroke="#EF4444" stroke-width="2.5" stroke-linecap="round"/>
  <line x1="27" y1="30" x2="18" y2="40" stroke="#F59E0B" stroke-width="2" stroke-linecap="round"/>
  <line x1="27" y1="26" x2="14" y2="26" stroke="#F97316" stroke-width="2" stroke-linecap="round"/>
  <line x1="27" y1="22" x2="18" y2="12" stroke="#EF4444" stroke-width="2" stroke-linecap="round"/>
  <circle cx="32" cy="6" r="2" fill="#F97316" opacity="0.7"/><circle cx="48" cy="10" r="1.5" fill="#EF4444" opacity="0.6"/>
  <circle cx="52" cy="26" r="1.5" fill="#F59E0B" opacity="0.6"/><circle cx="48" cy="42" r="1.5" fill="#F97316" opacity="0.6"/>
  <circle cx="32" cy="46" r="2" fill="#EF4444" opacity="0.7"/><circle cx="16" cy="42" r="1.5" fill="#F59E0B" opacity="0.6"/>
  <circle cx="12" cy="26" r="1.5" fill="#F97316" opacity="0.6"/><circle cx="16" cy="10" r="1.5" fill="#EF4444" opacity="0.6"/>
  <text x="32" y="58" text-anchor="middle" font-family="system-ui" font-size="5.5" font-weight="600" fill="#E0E0E0">Fireworks</text>
</svg>