<svg xmlns="http://www.w3.org/2000/svg" viewBox="0 0 64 64" width="64" height="64">
  <rect x="12" y="10" width="8" height="8" rx="1" fill="#FF7000"/><rect x="12" y="20" width="8" height="8" rx="1" fill="#0a0e14" stroke="#FF7000" stroke-width="1"/>
  <rect x="12" y="30" width="8" height="8" rx="1" fill="#FF7000"/><rect x="12" y="40" width="8" height="8" rx="1" fill="#0a0e14" stroke="#FF7000" stroke-width="1"/>
  <rect x="28" y="10" width="8" height="8" rx="1" fill="#FF7000"/><rect x="28" y="20" width="8" height="8" rx="1" fill="#FFB347"/>
  <rect x="28" y="30" width="8" height="8" rx="1" fill="#FF7000"/><rect x="28" y="40" width="8" height="8" rx="1" fill="#FFB347"/>
  <rect x="44" y="10" width="8" height="8" rx="1" fill="#FF7000"/><rect x="44" y="20" width="8" height="8" rx="1" fill="#0a0e14" stroke="#FF7000" stroke-width="1"/>
  <rect x="44" y="30" width="8" height="8" rx="1" fill="#FF7000"/><rect x="44" y="40" width="8" height="8" rx="1" fill="#0a0e14" stroke="#FF7000" stroke-width="1"/>
  <text x="32" y="58" text-anchor="middle" font-family="system-ui" font-size="7" font-weight="600" fill="#E0E0E0">Mistral</text>
</svg>